<?xml version="1.0" standalone="no"?>
<!DOCTYPE svg PUBLIC "-//W3C//DTD SVG 20010904//EN"
 "http://www.w3.org/TR/2001/REC-SVG-20010904/DTD/svg10.dtd">
<svg version="1.0" xmlns="http://www.w3.org/2000/svg"
 width="512.000000pt" height="512.000000pt" viewBox="0 0 512.000000 512.000000"
 preserveAspectRatio="xMidYMid meet">
<metadata>
Created by potrace 1.14, written by Peter Selinger 2001-2017
</metadata>
<g transform="translate(0.000000,512.000000) scale(0.100000,-0.100000)"
fill="#000000" stroke="none">
<path d="M2378 5035 c-2 -1 -36 -5 -76 -9 -214 -18 -449 -93 -595 -190 -112
-74 -218 -203 -252 -306 -11 -33 -27 -57 -48 -72 -111 -79 -196 -252 -231
-468 -23 -145 -15 -394 17 -530 14 -58 32 -123 41 -144 21 -49 20 -51 -8 -64
-43 -19 -99 -76 -118 -119 -89 -202 67 -498 257 -489 28 2 57 6 65 10 12 5 20
-6 33 -51 27 -85 119 -272 140 -281 4 -2 7 -8 7 -14 0 -32 188 -229 273 -286
l38 -26 -62 -22 c-145 -53 -259 -176 -285 -310 -5 -21 -9 -42 -10 -46 -1 -5
-2 -21 -3 -37 -1 -25 -6 -30 -38 -36 -59 -10 -367 -100 -478 -139 -250 -87
-346 -139 -421 -230 -203 -245 -373 -561 -488 -909 -24 -73 -46 -144 -50 -159
l-6 -28 2480 0 c2359 0 2481 1 2476 18 -3 9 -17 55 -32 102 -14 47 -29 97 -34
112 -23 76 -111 278 -170 393 -80 156 -150 269 -241 390 -113 152 -141 173
-310 246 -97 41 -313 114 -432 147 l-68 18 -32 79 c-43 106 -78 158 -152 230
-94 91 -212 153 -328 173 l-38 7 60 44 c89 64 195 180 265 289 57 88 88 150
121 243 26 76 27 77 58 72 102 -16 226 87 272 227 55 166 6 320 -120 379 l-43
20 14 58 c8 32 17 78 20 103 3 25 8 54 10 65 22 109 25 417 6 515 -16 76 -47
182 -66 225 -61 132 -75 158 -141 250 -107 151 -298 311 -475 400 -64 32 -183
82 -215 90 -5 1 -17 5 -25 8 -27 11 -154 37 -220 46 -54 8 -335 12 -342 6z
m-315 -3121 c14 -5 17 -19 17 -80 0 -64 -2 -74 -17 -74 -46 0 -156 -71 -181
-116 -8 -14 -98 -40 -210 -61 l-32 -6 5 39 c14 92 84 198 163 248 57 36 194
72 227 60 6 -2 18 -7 28 -10z m1223 -20 c126 -42 238 -128 307 -237 26 -40 57
-107 57 -122 0 -1 -51 11 -112 27 -62 15 -122 30 -133 32 -132 27 -155 36
-192 77 -37 41 -120 89 -155 89 -16 0 -18 10 -18 74 0 50 4 76 13 80 23 10
184 -3 233 -20z"/>
</g>
</svg>
